<svg id="Layer_1" data-name="Layer 1" xmlns="http://www.w3.org/2000/svg" viewBox="0 0 202.65 72.68"><defs><style>.cls-1{fill:#e62930;}.cls-2{fill:#1d1d1b;}</style></defs><title>graff</title><polygon class="cls-1" points="202.65 27.98 159.54 0.17 159.54 12.66 140.17 0.17 140.17 55.79 159.54 43.3 159.54 55.79 202.65 27.98"/><path class="cls-2" d="M32.68,58.9q0,8.61-3.95,12.68t-11,4.07a30.71,30.71,0,0,1-7.67-.75,18.33,18.33,0,0,1-4.26-1.62l2-8c1.16.47,2.41.92,3.76,1.34a16.05,16.05,0,0,0,4.78.63q4,0,5.57-2.17c1-1.45,1.54-3.65,1.54-6.59V56.37H23.2a6.72,6.72,0,0,1-3,2.37,12.3,12.3,0,0,1-4.78.79q-6.24,0-9.36-4.7T3,39.94q0-11,4.3-16.19t12.28-5.22a40.4,40.4,0,0,1,7.67.67,25.09,25.09,0,0,1,5.45,1.62ZM18.06,51.47a5.09,5.09,0,0,0,3.36-1,6.29,6.29,0,0,0,1.86-2.93V27.77a10.27,10.27,0,0,0-1.94-.63,11.47,11.47,0,0,0-2.49-.23,5,5,0,0,0-4.54,2.84c-1.08,1.9-1.62,5.16-1.62,9.8Q12.69,51.48,18.06,51.47Z" transform="translate(-2.98 -2.97)"/><path class="cls-2" d="M58,28.72A10.13,10.13,0,0,0,54.56,28a5.73,5.73,0,0,0-5.77,4.51V58.9h-9.4V19.4h7.19l1.11,4.74H48a9.16,9.16,0,0,1,3-4.07,7.21,7.21,0,0,1,4.46-1.46,9.34,9.34,0,0,1,3.71.79Z" transform="translate(-2.98 -2.97)"/><path class="cls-2" d="M62.62,21.77a21.33,21.33,0,0,1,5.92-2.29,34,34,0,0,1,8.06-.87q6.72,0,9.36,3.48T88.61,32c0,2.48-.07,4.91-.2,7.31s-.22,4.74-.28,7,0,4.5.12,6.64a26,26,0,0,0,1.07,6H81.66l-1.5-4.82h-.32A10.57,10.57,0,0,1,76.28,58a10.3,10.3,0,0,1-5.76,1.5,9.19,9.19,0,0,1-7.35-3.12A12.34,12.34,0,0,1,60.48,48q0-7.11,5.06-10.11t13.67-2.53c.26-3,.06-5.27-.59-6.64s-2.07-2-4.23-2a22.86,22.86,0,0,0-4.9.55A18.17,18.17,0,0,0,65,28.8ZM73.91,51.4a5.43,5.43,0,0,0,3.48-1.07,7.11,7.11,0,0,0,2-2.33V41.44a15.73,15.73,0,0,0-3.48-.08,9.85,9.85,0,0,0-2.92.71,4.71,4.71,0,0,0-2,1.62,4.63,4.63,0,0,0-.75,2.73,5.92,5.92,0,0,0,1,3.71A3.28,3.28,0,0,0,73.91,51.4Z" transform="translate(-2.98 -2.97)"/><path class="cls-1" d="M92.4,19.4h4.27V17.19q0-7.5,2.8-10.86t8-3.36a23.07,23.07,0,0,1,8.69,1.42l-1.74,8a10.06,10.06,0,0,0-2.53-.67,21.26,21.26,0,0,0-2.29-.12,2.73,2.73,0,0,0-2.92,1.78,20.14,20.14,0,0,0-.63,6h6.71v8.37h-6.71V58.9h-9.4V27.77H92.4Z" transform="translate(-2.98 -2.97)"/><path class="cls-1" d="M113.49,19.4h4.27V17.19q0-7.5,2.8-10.86c1.87-2.24,4.55-3.36,8-3.36a23,23,0,0,1,8.69,1.42l-1.74,8A10.06,10.06,0,0,0,133,11.7a21.12,21.12,0,0,0-2.29-.12,2.74,2.74,0,0,0-2.92,1.78,20.14,20.14,0,0,0-.63,6h6.71v8.37h-6.71V58.9h-9.4V27.77h-4.27Z" transform="translate(-2.98 -2.97)"/></svg>